<?xml version="1.0" standalone="no"?><svg xmlns="http://www.w3.org/2000/svg" viewBox="0 0 1440 320"><path fill="#7d748b" fill-opacity="1" d="M0,192L34.3,213.3C68.6,235,137,277,206,261.3C274.3,245,343,171,411,144C480,117,549,139,617,138.7C685.7,139,754,117,823,112C891.4,107,960,117,1029,149.3C1097.1,181,1166,235,1234,234.7C1302.9,235,1371,181,1406,154.7L1440,128L1440,320L1405.7,320C1371.4,320,1303,320,1234,320C1165.7,320,1097,320,1029,320C960,320,891,320,823,320C754.3,320,686,320,617,320C548.6,320,480,320,411,320C342.9,320,274,320,206,320C137.1,320,69,320,34,320L0,320Z"></path></svg>