<?xml version="1.0" standalone="no"?><svg xmlns="http://www.w3.org/2000/svg" viewBox="0 0 1440 320"><path fill="#3f3a45" fill-opacity="1" d="M0,160L34.3,138.7C68.6,117,137,75,206,80C274.3,85,343,139,411,186.7C480,235,549,277,617,261.3C685.7,245,754,171,823,122.7C891.4,75,960,53,1029,42.7C1097.1,32,1166,32,1234,64C1302.9,96,1371,160,1406,192L1440,224L1440,320L1405.7,320C1371.4,320,1303,320,1234,320C1165.7,320,1097,320,1029,320C960,320,891,320,823,320C754.3,320,686,320,617,320C548.6,320,480,320,411,320C342.9,320,274,320,206,320C137.1,320,69,320,34,320L0,320Z"></path></svg>